{"asset":{"version":"2.0","generator":"babylon.js glTF exporter for Autodesk MAYA 2023.3 v20250113.1"},"scene":0,"scenes":[{"nodes":[0]}],"nodes":[{"children":[1,2,3,4,5,6,7,8,9],"name":"goggles"},{"mesh":0,"name":"strap"},{"mesh":1,"translation":[-0.005105377,0.337667316,-0.8267882],"scale":[1.0,1.0,0.7161847],"name":"strap_adjust"},{"mesh":2,"translation":[0.029783966,0.0156309512,0.767653167],"scale":[0.8697536,0.9387742,0.702816069],"name":"left_inner_padding"},{"mesh":3,"translation":[-0.0535294861,0.0156309512,0.767653167],"rotation":[0.0,1.0,0.0,6.123234E-17],"scale":[0.87,0.9387742,-0.702816069],"name":"right_inner_padding"},{"mesh":4,"name":"frames"},{"mesh":5,"translation":[0.0,0.0,-0.411479443],"scale":[1.0,1.0,1.71230233],"name":"nose_piece"},{"mesh":6,"translation":[-0.0262412988,0.0,0.908333957],"rotation":[0.0,1.0,0.0,6.123234E-17],"scale":[1.0,1.0,-1.0],"name":"right_lens"},{"mesh":7,"translation":[0.000115286988,0.0,0.908333957],"name":"left_lens"},{"mesh":8,"translation":[-0.00111768581,0.0,0.908333957],"name":"polySurface2"}],"meshes":[{"primitives":[{"attributes":{"POSITION":1,"TANGENT":2,"NORMAL":3,"TEXCOORD_0":4},"indices":0,"material":0}],"name":"strap"},{"primitives":[{"attributes":{"POSITION":6,"NORMAL":7},"indices":5,"material":1}],"name":"strap_adjust"},{"primitives":[{"attributes":{"POSITION":9,"TANGENT":10,"NORMAL":11,"TEXCOORD_0":12},"indices":8,"material":1}],"name":"left_inner_padding"},{"primitives":[{"attributes":{"POSITION":14,"TANGENT":15,"NORMAL":16,"TEXCOORD_0":17},"indices":13,"material":1}],"name":"right_inner_padding"},{"primitives":[{"attributes":{"POSITION":19,"TANGENT":20,"NORMAL":21,"TEXCOORD_0":22},"indices":18,"material":2},{"attributes":{"POSITION":24,"TANGENT":25,"NORMAL":26,"TEXCOORD_0":27},"indices":23,"material":1},{"attributes":{"POSITION":29,"TANGENT":30,"NORMAL":31,"TEXCOORD_0":32},"indices":28,"material":3}],"name":"frames"},{"primitives":[{"attributes":{"POSITION":34,"TANGENT":35,"NORMAL":36,"TEXCOORD_0":37},"indices":33,"material":4}],"name":"nose_piece"},{"primitives":[{"attributes":{"POSITION":39,"TANGENT":40,"NORMAL":41,"TEXCOORD_0":42},"indices":38,"material":5},{"attributes":{"POSITION":44,"TANGENT":45,"NORMAL":46,"TEXCOORD_0":47},"indices":43,"material":1},{"attributes":{"POSITION":49,"TANGENT":50,"NORMAL":51,"TEXCOORD_0":52},"indices":48,"material":6}],"name":"right_lens"},{"primitives":[{"attributes":{"POSITION":54,"TANGENT":55,"NORMAL":56,"TEXCOORD_0":57},"indices":53,"material":5},{"attributes":{"POSITION":59,"TANGENT":60,"NORMAL":61,"TEXCOORD_0":62},"indices":58,"material":7},{"attributes":{"POSITION":64,"TANGENT":65,"NORMAL":66,"TEXCOORD_0":67},"indices":63,"material":6}],"name":"left_lens"},{"primitives":[{"attributes":{"POSITION":69,"TANGENT":70,"NORMAL":71,"TEXCOORD_0":72},"indices":68,"material":1}],"name":"polySurface2"}],"accessors":[{"bufferView":0,"componentType":5123,"count":13536,"type":"SCALAR","name":"accessorIndices"},{"bufferView":1,"componentType":5126,"count":2856,"max":[0.7876313,0.378377259,0.0422988124],"min":[-0.816127658,0.227403924,-0.8582382],"type":"VEC3","name":"accessorPositions"},{"bufferView":2,"componentType":5126,"count":2856,"type":"VEC4","name":"accessorTangents"},{"bufferView":1,"byteOffset":34272,"componentType":5126,"count":2856,"type":"VEC3","name":"accessorNormals"},{"bufferView":3,"componentType":5126,"count":2856,"type":"VEC2","name":"accessorUVs"},{"bufferView":0,"byteOffset":27072,"componentType":5123,"count":6228,"type":"SCALAR","name":"accessorIndices"},{"bufferView":1,"byteOffset":68544,"componentType":5126,"count":1184,"max":[0.103944935,0.0406541824,0.01550621],"min":[-0.102803275,-0.04063366,-0.015506668],"type":"VEC3","name":"accessorPositions"},{"bufferView":1,"byteOffset":82752,"componentType":5126,"count":1184,"type":"VEC3","name":"accessorNormals"},{"bufferView":0,"byteOffset":39528,"componentType":5123,"count":21216,"type":"SCALAR","name":"accessorIndices"},{"bufferView":1,"byteOffset":96960,"componentType":5126,"count":4270,"max":[0.7997606,0.515979946,-0.27470085],"min":[0.103133969,-0.005379498,-0.9049272],"type":"VEC3","name":"accessorPositions"},{"bufferView":2,"byteOffset":45696,"componentType":5126,"count":4270,"type":"VEC4","name":"accessorTangents"},{"bufferView":1,"byteOffset":148200,"componentType":5126,"count":4270,"type":"VEC3","name":"accessorNormals"},{"bufferView":3,"byteOffset":22848,"componentType":5126,"count":4270,"type":"VEC2","name":"accessorUVs"},{"bufferView":0,"byteOffset":81960,"componentType":5123,"count":21216,"type":"SCALAR","name":"accessorIndices"},{"bufferView":1,"byteOffset":199440,"componentType":5126,"count":4270,"max":[0.7997606,0.515979946,-0.27470085],"min":[0.103133969,-0.005379498,-0.9049272],"type":"VEC3","name":"accessorPositions"},{"bufferView":2,"byteOffset":114016,"componentType":5126,"count":4270,"type":"VEC4","name":"accessorTangents"},{"bufferView":1,"byteOffset":250680,"componentType":5126,"count":4270,"type":"VEC3","name":"accessorNormals"},{"bufferView":3,"byteOffset":57008,"componentType":5126,"count":4270,"type":"VEC2","name":"accessorUVs"},{"bufferView":0,"byteOffset":124392,"componentType":5123,"count":5034,"type":"SCALAR","name":"accessorIndices"},{"bufferView":1,"byteOffset":301920,"componentType":5126,"count":1418,"max":[0.681183755,0.504527032,0.6197886],"min":[-0.7109512,0.00607344741,0.3093658],"type":"VEC3","name":"accessorPositions"},{"bufferView":2,"byteOffset":182336,"componentType":5126,"count":1418,"type":"VEC4","name":"accessorTangents"},{"bufferView":1,"byteOffset":318936,"componentType":5126,"count":1418,"type":"VEC3","name":"accessorNormals"},{"bufferView":3,"byteOffset":91168,"componentType":5126,"count":1418,"type":"VEC2","name":"accessorUVs"},{"bufferView":0,"byteOffset":134460,"componentType":5123,"count":1584,"type":"SCALAR","name":"accessorIndices"},{"bufferView":1,"byteOffset":335952,"componentType":5126,"count":1708,"max":[0.7844575,0.504527032,0.6197886],"min":[-0.806760669,0.00607344741,0.0172512811],"type":"VEC3","name":"accessorPositions"},{"bufferView":2,"byteOffset":205024,"componentType":5126,"count":1708,"type":"VEC4","name":"accessorTangents"},{"bufferView":1,"byteOffset":356448,"componentType":5126,"count":1708,"type":"VEC3","name":"accessorNormals"},{"bufferView":3,"byteOffset":102512,"componentType":5126,"count":1708,"type":"VEC2","name":"accessorUVs"},{"bufferView":0,"byteOffset":137628,"componentType":5123,"count":54,"type":"SCALAR","name":"accessorIndices"},{"bufferView":1,"byteOffset":376944,"componentType":5126,"count":971,"max":[0.7844575,0.369957983,0.598731041],"min":[-0.806760669,0.1523785,0.0172512811],"type":"VEC3","name":"accessorPositions"},{"bufferView":2,"byteOffset":232352,"componentType":5126,"count":971,"type":"VEC4","name":"accessorTangents"},{"bufferView":1,"byteOffset":388596,"componentType":5126,"count":971,"type":"VEC3","name":"accessorNormals"},{"bufferView":3,"byteOffset":116176,"componentType":5126,"count":971,"type":"VEC2","name":"accessorUVs"},{"bufferView":0,"byteOffset":137736,"componentType":5123,"count":4704,"type":"SCALAR","name":"accessorIndices"},{"bufferView":1,"byteOffset":400248,"componentType":5126,"count":822,"max":[0.167383879,0.344591945,0.602622032],"min":[-0.18980886,0.210620016,0.5544768],"type":"VEC3","name":"accessorPositions"},{"bufferView":2,"byteOffset":247888,"componentType":5126,"count":822,"type":"VEC4","name":"accessorTangents"},{"bufferView":1,"byteOffset":410112,"componentType":5126,"count":822,"type":"VEC3","name":"accessorNormals"},{"bufferView":3,"byteOffset":123944,"componentType":5126,"count":822,"type":"VEC2","name":"accessorUVs"},{"bufferView":0,"byteOffset":147144,"componentType":5123,"count":534,"type":"SCALAR","name":"accessorIndices"},{"bufferView":1,"byteOffset":419976,"componentType":5126,"count":110,"max":[0.68213737,0.453753263,-0.279875278],"min":[0.177245751,0.08640106,-0.55890274],"type":"VEC3","name":"accessorPositions"},{"bufferView":2,"byteOffset":261040,"componentType":5126,"count":110,"type":"VEC4","name":"accessorTangents"},{"bufferView":1,"byteOffset":421296,"componentType":5126,"count":110,"type":"VEC3","name":"accessorNormals"},{"bufferView":3,"byteOffset":130520,"componentType":5126,"count":110,"type":"VEC2","name":"accessorUVs"},{"bufferView":0,"byteOffset":148212,"componentType":5123,"count":183,"type":"SCALAR","name":"accessorIndices"},{"bufferView":1,"byteOffset":422616,"componentType":5126,"count":43,"max":[0.78379333,0.344951063,-0.5602065],"min":[0.684977531,0.2066132,-0.891056657],"type":"VEC3","name":"accessorPositions"},{"bufferView":2,"byteOffset":262800,"componentType":5126,"count":43,"type":"VEC4","name":"accessorTangents"},{"bufferView":1,"byteOffset":423132,"componentType":5126,"count":43,"type":"VEC3","name":"accessorNormals"},{"bufferView":3,"byteOffset":131400,"componentType":5126,"count":43,"type":"VEC2","name":"accessorUVs"},{"bufferView":0,"byteOffset":148580,"componentType":5123,"count":39,"type":"SCALAR","name":"accessorIndices"},{"bufferView":1,"byteOffset":423648,"componentType":5126,"count":50,"max":[0.78379333,0.35997054,-0.511082768],"min":[0.651152849,0.202127472,-0.891056657],"type":"VEC3","name":"accessorPositions"},{"bufferView":2,"byteOffset":263488,"componentType":5126,"count":50,"type":"VEC4","name":"accessorTangents"},{"bufferView":1,"byteOffset":424248,"componentType":5126,"count":50,"type":"VEC3","name":"accessorNormals"},{"bufferView":3,"byteOffset":131744,"componentType":5126,"count":50,"type":"VEC2","name":"accessorUVs"},{"bufferView":0,"byteOffset":148660,"componentType":5123,"count":534,"type":"SCALAR","name":"accessorIndices"},{"bufferView":1,"byteOffset":424848,"componentType":5126,"count":110,"max":[0.68213737,0.453753263,-0.279875278],"min":[0.177245751,0.08640106,-0.55890274],"type":"VEC3","name":"accessorPositions"},{"bufferView":2,"byteOffset":264288,"componentType":5126,"count":110,"type":"VEC4","name":"accessorTangents"},{"bufferView":1,"byteOffset":426168,"componentType":5126,"count":110,"type":"VEC3","name":"accessorNormals"},{"bufferView":3,"byteOffset":132144,"componentType":5126,"count":110,"type":"VEC2","name":"accessorUVs"},{"bufferView":0,"byteOffset":149728,"componentType":5123,"count":183,"type":"SCALAR","name":"accessorIndices"},{"bufferView":1,"byteOffset":427488,"componentType":5126,"count":43,"max":[0.78379333,0.344951063,-0.5602065],"min":[0.684977531,0.2066132,-0.891056657],"type":"VEC3","name":"accessorPositions"},{"bufferView":2,"byteOffset":266048,"componentType":5126,"count":43,"type":"VEC4","name":"accessorTangents"},{"bufferView":1,"byteOffset":428004,"componentType":5126,"count":43,"type":"VEC3","name":"accessorNormals"},{"bufferView":3,"byteOffset":133024,"componentType":5126,"count":43,"type":"VEC2","name":"accessorUVs"},{"bufferView":0,"byteOffset":150096,"componentType":5123,"count":39,"type":"SCALAR","name":"accessorIndices"},{"bufferView":1,"byteOffset":428520,"componentType":5126,"count":50,"max":[0.78379333,0.35997054,-0.511082768],"min":[0.651152849,0.202127472,-0.891056657],"type":"VEC3","name":"accessorPositions"},{"bufferView":2,"byteOffset":266736,"componentType":5126,"count":50,"type":"VEC4","name":"accessorTangents"},{"bufferView":1,"byteOffset":429120,"componentType":5126,"count":50,"type":"VEC3","name":"accessorNormals"},{"bufferView":3,"byteOffset":133368,"componentType":5126,"count":50,"type":"VEC2","name":"accessorUVs"},{"bufferView":0,"byteOffset":150176,"componentType":5123,"count":183,"type":"SCALAR","name":"accessorIndices"},{"bufferView":1,"byteOffset":429720,"componentType":5126,"count":43,"max":[0.78379333,0.344951063,-0.5602065],"min":[0.684977531,0.2066132,-0.891056657],"type":"VEC3","name":"accessorPositions"},{"bufferView":2,"byteOffset":267536,"componentType":5126,"count":43,"type":"VEC4","name":"accessorTangents"},{"bufferView":1,"byteOffset":430236,"componentType":5126,"count":43,"type":"VEC3","name":"accessorNormals"},{"bufferView":3,"byteOffset":133768,"componentType":5126,"count":43,"type":"VEC2","name":"accessorUVs"}],"bufferViews":[{"buffer":0,"byteLength":150544,"name":"bufferViewScalar"},{"buffer":0,"byteOffset":150544,"byteLength":430752,"byteStride":12,"name":"bufferViewFloatVec3"},{"buffer":0,"byteOffset":581296,"byteLength":268224,"byteStride":16,"name":"bufferViewFloatVec4"},{"buffer":0,"byteOffset":849520,"byteLength":134112,"byteStride":8,"name":"bufferViewFloatVec2"}],"buffers":[{"uri":"goggles.bin","byteLength":983632}],"materials":[{"pbrMetallicRoughness":{"baseColorTexture":{"index":0},"metallicFactor":0.0,"roughnessFactor":0.201679826},"name":"strapSG"},{"pbrMetallicRoughness":{"metallicFactor":0.0,"roughnessFactor":0.201679826},"name":"blinn7"},{"pbrMetallicRoughness":{"metallicFactor":0.0,"roughnessFactor":0.18821308},"name":"metal_frame_SG"},{"pbrMetallicRoughness":{"baseColorFactor":[0.5,0.5,0.5,1.0],"metallicFactor":0.0,"roughnessFactor":0.450053632},"name":"lambert1"},{"pbrMetallicRoughness":{"baseColorFactor":[0.308571428,0.308571428,0.308571428,1.0],"metallicFactor":0.0,"roughnessFactor":0.450053632},"name":"lambert5"},{"pbrMetallicRoughness":{"baseColorFactor":[0.820512831,0.820512831,0.820512831,0.961538434],"metallicFactor":0.0,"roughnessFactor":0.201679826},"alphaMode":"BLEND","name":"lenses_SG"},{"pbrMetallicRoughness":{"baseColorFactor":[0.678,0.678,0.75,0.9551282],"metallicFactor":0.0,"roughnessFactor":0.201679826},"alphaMode":"BLEND","name":"blinn5"},{"pbrMetallicRoughness":{"baseColorTexture":{"index":0},"metallicFactor":0.0,"roughnessFactor":0.201679826},"name":"blinn2"}],"textures":[{"sampler":0,"source":0,"name":"goggles_map.png"}],"images":[{"uri":"goggles_map.png"}],"samplers":[{"magFilter":9729,"minFilter":9987}]}