{"asset":{"version":"2.0","generator":"babylon.js glTF exporter for Autodesk MAYA 2023.3 v20250113.1"},"scene":0,"scenes":[{"nodes":[0]}],"nodes":[{"children":[1,2,3,4,5,6,7,8],"name":"goggles"},{"mesh":0,"name":"strap"},{"mesh":1,"translation":[-0.005105377,0.337667316,-0.8267882],"scale":[1.0,1.0,0.7161847],"name":"strap_adjust"},{"mesh":2,"translation":[0.029783966,0.0156309512,0.767653167],"scale":[0.8697536,0.9387742,0.702816069],"name":"left_inner_padding"},{"mesh":3,"translation":[-0.0535294861,0.0156309512,0.767653167],"rotation":[0.0,1.0,0.0,6.123234E-17],"scale":[0.87,0.9387742,-0.702816069],"name":"right_inner_padding"},{"mesh":4,"name":"frames"},{"mesh":5,"translation":[0.0,0.0,-0.411479443],"scale":[1.0,1.0,1.71230233],"name":"nose_piece"},{"mesh":6,"translation":[0.000115286988,0.0,0.908333957],"name":"left_lens"},{"mesh":7,"translation":[-0.0262412988,0.0,0.908333957],"rotation":[0.0,1.0,0.0,6.123234E-17],"scale":[1.0,1.0,-1.0],"name":"right_lens"}],"meshes":[{"primitives":[{"attributes":{"POSITION":1,"TANGENT":2,"NORMAL":3,"TEXCOORD_0":4},"indices":0,"material":0}],"name":"strap"},{"primitives":[{"attributes":{"POSITION":6,"TANGENT":7,"NORMAL":8,"TEXCOORD_0":9},"indices":5,"material":1}],"name":"strap_adjust"},{"primitives":[{"attributes":{"POSITION":11,"TANGENT":12,"NORMAL":13,"TEXCOORD_0":14},"indices":10,"material":1}],"name":"left_inner_padding"},{"primitives":[{"attributes":{"POSITION":16,"TANGENT":17,"NORMAL":18,"TEXCOORD_0":19},"indices":15,"material":1}],"name":"right_inner_padding"},{"primitives":[{"attributes":{"POSITION":21,"TANGENT":22,"NORMAL":23,"TEXCOORD_0":24},"indices":20,"material":2},{"attributes":{"POSITION":26,"TANGENT":27,"NORMAL":28,"TEXCOORD_0":29},"indices":25,"material":1},{"attributes":{"POSITION":31,"TANGENT":32,"NORMAL":33,"TEXCOORD_0":34},"indices":30,"material":3}],"name":"frames"},{"primitives":[{"attributes":{"POSITION":36,"TANGENT":37,"NORMAL":38,"TEXCOORD_0":39},"indices":35,"material":4}],"name":"nose_piece"},{"primitives":[{"attributes":{"POSITION":41,"TANGENT":42,"NORMAL":43,"TEXCOORD_0":44},"indices":40,"material":5},{"attributes":{"POSITION":46,"TANGENT":47,"NORMAL":48,"TEXCOORD_0":49},"indices":45,"material":6},{"attributes":{"POSITION":51,"TANGENT":52,"NORMAL":53,"TEXCOORD_0":54},"indices":50,"material":7}],"name":"left_lens"},{"primitives":[{"attributes":{"POSITION":56,"TANGENT":57,"NORMAL":58,"TEXCOORD_0":59},"indices":55,"material":5},{"attributes":{"POSITION":61,"TANGENT":62,"NORMAL":63,"TEXCOORD_0":64},"indices":60,"material":1},{"attributes":{"POSITION":66,"TANGENT":67,"NORMAL":68,"TEXCOORD_0":69},"indices":65,"material":7}],"name":"right_lens"}],"accessors":[{"bufferView":0,"componentType":5123,"count":13536,"type":"SCALAR","name":"accessorIndices"},{"bufferView":1,"componentType":5126,"count":2856,"max":[0.7848241,0.376570433,0.0493117236],"min":[-0.7997311,0.227403924,-0.859319746],"type":"VEC3","name":"accessorPositions"},{"bufferView":2,"componentType":5126,"count":2856,"type":"VEC4","name":"accessorTangents"},{"bufferView":1,"byteOffset":34272,"componentType":5126,"count":2856,"type":"VEC3","name":"accessorNormals"},{"bufferView":3,"componentType":5126,"count":2856,"type":"VEC2","name":"accessorUVs"},{"bufferView":0,"byteOffset":27072,"componentType":5123,"count":240,"type":"SCALAR","name":"accessorIndices"},{"bufferView":1,"byteOffset":68544,"componentType":5126,"count":84,"max":[0.104108982,0.04070183,0.0155061539],"min":[-0.103035159,-0.040701814,-0.0155061539],"type":"VEC3","name":"accessorPositions"},{"bufferView":2,"byteOffset":45696,"componentType":5126,"count":84,"type":"VEC4","name":"accessorTangents"},{"bufferView":1,"byteOffset":69552,"componentType":5126,"count":84,"type":"VEC3","name":"accessorNormals"},{"bufferView":3,"byteOffset":22848,"componentType":5126,"count":84,"type":"VEC2","name":"accessorUVs"},{"bufferView":0,"byteOffset":27552,"componentType":5123,"count":21216,"type":"SCALAR","name":"accessorIndices"},{"bufferView":1,"byteOffset":70560,"componentType":5126,"count":4270,"max":[0.7997606,0.515979946,-0.27470085],"min":[0.103133969,-0.005379498,-0.9049272],"type":"VEC3","name":"accessorPositions"},{"bufferView":2,"byteOffset":47040,"componentType":5126,"count":4270,"type":"VEC4","name":"accessorTangents"},{"bufferView":1,"byteOffset":121800,"componentType":5126,"count":4270,"type":"VEC3","name":"accessorNormals"},{"bufferView":3,"byteOffset":23520,"componentType":5126,"count":4270,"type":"VEC2","name":"accessorUVs"},{"bufferView":0,"byteOffset":69984,"componentType":5123,"count":21216,"type":"SCALAR","name":"accessorIndices"},{"bufferView":1,"byteOffset":173040,"componentType":5126,"count":4270,"max":[0.7997606,0.515979946,-0.27470085],"min":[0.103133969,-0.005379498,-0.9049272],"type":"VEC3","name":"accessorPositions"},{"bufferView":2,"byteOffset":115360,"componentType":5126,"count":4270,"type":"VEC4","name":"accessorTangents"},{"bufferView":1,"byteOffset":224280,"componentType":5126,"count":4270,"type":"VEC3","name":"accessorNormals"},{"bufferView":3,"byteOffset":57680,"componentType":5126,"count":4270,"type":"VEC2","name":"accessorUVs"},{"bufferView":0,"byteOffset":112416,"componentType":5123,"count":5034,"type":"SCALAR","name":"accessorIndices"},{"bufferView":1,"byteOffset":275520,"componentType":5126,"count":1418,"max":[0.681183755,0.504527032,0.6197886],"min":[-0.7109512,0.00607344741,0.3093658],"type":"VEC3","name":"accessorPositions"},{"bufferView":2,"byteOffset":183680,"componentType":5126,"count":1418,"type":"VEC4","name":"accessorTangents"},{"bufferView":1,"byteOffset":292536,"componentType":5126,"count":1418,"type":"VEC3","name":"accessorNormals"},{"bufferView":3,"byteOffset":91840,"componentType":5126,"count":1418,"type":"VEC2","name":"accessorUVs"},{"bufferView":0,"byteOffset":122484,"componentType":5123,"count":1584,"type":"SCALAR","name":"accessorIndices"},{"bufferView":1,"byteOffset":309552,"componentType":5126,"count":1708,"max":[0.7844575,0.504527032,0.6197886],"min":[-0.806760669,0.00607344741,0.0172512811],"type":"VEC3","name":"accessorPositions"},{"bufferView":2,"byteOffset":206368,"componentType":5126,"count":1708,"type":"VEC4","name":"accessorTangents"},{"bufferView":1,"byteOffset":330048,"componentType":5126,"count":1708,"type":"VEC3","name":"accessorNormals"},{"bufferView":3,"byteOffset":103184,"componentType":5126,"count":1708,"type":"VEC2","name":"accessorUVs"},{"bufferView":0,"byteOffset":125652,"componentType":5123,"count":54,"type":"SCALAR","name":"accessorIndices"},{"bufferView":1,"byteOffset":350544,"componentType":5126,"count":971,"max":[0.7844575,0.369957983,0.598731041],"min":[-0.806760669,0.1523785,0.0172512811],"type":"VEC3","name":"accessorPositions"},{"bufferView":2,"byteOffset":233696,"componentType":5126,"count":971,"type":"VEC4","name":"accessorTangents"},{"bufferView":1,"byteOffset":362196,"componentType":5126,"count":971,"type":"VEC3","name":"accessorNormals"},{"bufferView":3,"byteOffset":116848,"componentType":5126,"count":971,"type":"VEC2","name":"accessorUVs"},{"bufferView":0,"byteOffset":125760,"componentType":5123,"count":960,"type":"SCALAR","name":"accessorIndices"},{"bufferView":1,"byteOffset":373848,"componentType":5126,"count":383,"max":[0.171042591,0.346003056,0.6031562],"min":[-0.193468392,0.206700131,0.55104214],"type":"VEC3","name":"accessorPositions"},{"bufferView":2,"byteOffset":249232,"componentType":5126,"count":383,"type":"VEC4","name":"accessorTangents"},{"bufferView":1,"byteOffset":378444,"componentType":5126,"count":383,"type":"VEC3","name":"accessorNormals"},{"bufferView":3,"byteOffset":124616,"componentType":5126,"count":383,"type":"VEC2","name":"accessorUVs"},{"bufferView":0,"byteOffset":127680,"componentType":5123,"count":534,"type":"SCALAR","name":"accessorIndices"},{"bufferView":1,"byteOffset":383040,"componentType":5126,"count":110,"max":[0.68213737,0.453753263,-0.279875278],"min":[0.177245751,0.08640106,-0.55890274],"type":"VEC3","name":"accessorPositions"},{"bufferView":2,"byteOffset":255360,"componentType":5126,"count":110,"type":"VEC4","name":"accessorTangents"},{"bufferView":1,"byteOffset":384360,"componentType":5126,"count":110,"type":"VEC3","name":"accessorNormals"},{"bufferView":3,"byteOffset":127680,"componentType":5126,"count":110,"type":"VEC2","name":"accessorUVs"},{"bufferView":0,"byteOffset":128748,"componentType":5123,"count":183,"type":"SCALAR","name":"accessorIndices"},{"bufferView":1,"byteOffset":385680,"componentType":5126,"count":43,"max":[0.78379333,0.344951063,-0.5602065],"min":[0.684977531,0.2066132,-0.891056657],"type":"VEC3","name":"accessorPositions"},{"bufferView":2,"byteOffset":257120,"componentType":5126,"count":43,"type":"VEC4","name":"accessorTangents"},{"bufferView":1,"byteOffset":386196,"componentType":5126,"count":43,"type":"VEC3","name":"accessorNormals"},{"bufferView":3,"byteOffset":128560,"componentType":5126,"count":43,"type":"VEC2","name":"accessorUVs"},{"bufferView":0,"byteOffset":129116,"componentType":5123,"count":39,"type":"SCALAR","name":"accessorIndices"},{"bufferView":1,"byteOffset":386712,"componentType":5126,"count":50,"max":[0.78379333,0.35997054,-0.511082768],"min":[0.651152849,0.202127472,-0.891056657],"type":"VEC3","name":"accessorPositions"},{"bufferView":2,"byteOffset":257808,"componentType":5126,"count":50,"type":"VEC4","name":"accessorTangents"},{"bufferView":1,"byteOffset":387312,"componentType":5126,"count":50,"type":"VEC3","name":"accessorNormals"},{"bufferView":3,"byteOffset":128904,"componentType":5126,"count":50,"type":"VEC2","name":"accessorUVs"},{"bufferView":0,"byteOffset":129196,"componentType":5123,"count":534,"type":"SCALAR","name":"accessorIndices"},{"bufferView":1,"byteOffset":387912,"componentType":5126,"count":110,"max":[0.68213737,0.453753263,-0.279875278],"min":[0.177245751,0.08640106,-0.55890274],"type":"VEC3","name":"accessorPositions"},{"bufferView":2,"byteOffset":258608,"componentType":5126,"count":110,"type":"VEC4","name":"accessorTangents"},{"bufferView":1,"byteOffset":389232,"componentType":5126,"count":110,"type":"VEC3","name":"accessorNormals"},{"bufferView":3,"byteOffset":129304,"componentType":5126,"count":110,"type":"VEC2","name":"accessorUVs"},{"bufferView":0,"byteOffset":130264,"componentType":5123,"count":183,"type":"SCALAR","name":"accessorIndices"},{"bufferView":1,"byteOffset":390552,"componentType":5126,"count":43,"max":[0.78379333,0.344951063,-0.5602065],"min":[0.684977531,0.2066132,-0.891056657],"type":"VEC3","name":"accessorPositions"},{"bufferView":2,"byteOffset":260368,"componentType":5126,"count":43,"type":"VEC4","name":"accessorTangents"},{"bufferView":1,"byteOffset":391068,"componentType":5126,"count":43,"type":"VEC3","name":"accessorNormals"},{"bufferView":3,"byteOffset":130184,"componentType":5126,"count":43,"type":"VEC2","name":"accessorUVs"},{"bufferView":0,"byteOffset":130632,"componentType":5123,"count":39,"type":"SCALAR","name":"accessorIndices"},{"bufferView":1,"byteOffset":391584,"componentType":5126,"count":50,"max":[0.78379333,0.35997054,-0.511082768],"min":[0.651152849,0.202127472,-0.891056657],"type":"VEC3","name":"accessorPositions"},{"bufferView":2,"byteOffset":261056,"componentType":5126,"count":50,"type":"VEC4","name":"accessorTangents"},{"bufferView":1,"byteOffset":392184,"componentType":5126,"count":50,"type":"VEC3","name":"accessorNormals"},{"bufferView":3,"byteOffset":130528,"componentType":5126,"count":50,"type":"VEC2","name":"accessorUVs"}],"bufferViews":[{"buffer":0,"byteLength":130712,"name":"bufferViewScalar"},{"buffer":0,"byteOffset":130712,"byteLength":392784,"byteStride":12,"name":"bufferViewFloatVec3"},{"buffer":0,"byteOffset":523496,"byteLength":261856,"byteStride":16,"name":"bufferViewFloatVec4"},{"buffer":0,"byteOffset":785352,"byteLength":130928,"byteStride":8,"name":"bufferViewFloatVec2"}],"buffers":[{"uri":"goggles.bin","byteLength":916280}],"materials":[{"pbrMetallicRoughness":{"baseColorTexture":{"index":0},"metallicFactor":0.0,"roughnessFactor":0.201679826},"name":"strapSG"},{"pbrMetallicRoughness":{"metallicFactor":0.0,"roughnessFactor":0.201679826},"name":"blinn7"},{"pbrMetallicRoughness":{"metallicFactor":0.0,"roughnessFactor":0.18821308},"name":"metal_frame_SG"},{"pbrMetallicRoughness":{"baseColorFactor":[0.5,0.5,0.5,1.0],"metallicFactor":0.0,"roughnessFactor":0.450053632},"name":"lambert1"},{"pbrMetallicRoughness":{"baseColorFactor":[0.5,0.5,0.5,1.0],"metallicFactor":0.0,"roughnessFactor":0.450053632},"name":"lambert5"},{"pbrMetallicRoughness":{"baseColorFactor":[0.820512831,0.820512831,0.820512831,0.961538434],"metallicFactor":0.0,"roughnessFactor":0.201679826},"alphaMode":"BLEND","name":"lenses_SG"},{"pbrMetallicRoughness":{"baseColorTexture":{"index":0},"metallicFactor":0.0,"roughnessFactor":0.201679826},"name":"blinn2"},{"pbrMetallicRoughness":{"baseColorFactor":[0.678,0.678,0.75,0.9551282],"metallicFactor":0.0,"roughnessFactor":0.201679826},"alphaMode":"BLEND","name":"blinn5"}],"textures":[{"sampler":0,"source":0,"name":"goggles_map.png"}],"images":[{"uri":"goggles_map.png"}],"samplers":[{"magFilter":9729,"minFilter":9987}]}