{"asset":{"version":"2.0","generator":"babylon.js glTF exporter for Autodesk MAYA 2023.3 v20250113.1"},"scene":0,"scenes":[{"nodes":[0]}],"nodes":[{"children":[1,2,3,4,5,6,7],"name":"goggles"},{"mesh":0,"translation":[0.0,0.0,0.908333957],"name":"frame"},{"mesh":1,"translation":[0.0,0.0,0.908333957],"name":"strap"},{"mesh":2,"translation":[-0.005105377,0.337667316,-0.8267882],"scale":[1.0,1.0,0.7161847],"name":"strap_adjust"},{"mesh":3,"translation":[0.029783966,0.0156309512,0.767653167],"scale":[0.8697536,0.9387742,0.702816069],"name":"left_inner_padding"},{"mesh":4,"translation":[-0.0535294861,0.0156309512,0.767653167],"rotation":[0.0,1.0,0.0,6.123234E-17],"scale":[0.87,0.9387742,-0.702816069],"name":"right_inner_padding"},{"mesh":5,"translation":[-0.0223031249,0.0,0.908333957],"rotation":[0.0,1.0,0.0,6.123234E-17],"scale":[1.0,1.0,-1.0],"name":"right_lens"},{"mesh":6,"translation":[0.000115286988,0.0,0.908333957],"name":"left_lens"}],"meshes":[{"primitives":[{"attributes":{"POSITION":1,"TANGENT":2,"NORMAL":3,"TEXCOORD_0":4},"indices":0,"material":0},{"attributes":{"POSITION":6,"TANGENT":7,"NORMAL":8,"TEXCOORD_0":9},"indices":5,"material":1},{"attributes":{"POSITION":11,"TANGENT":12,"NORMAL":13,"TEXCOORD_0":14},"indices":10,"material":2},{"attributes":{"POSITION":16,"TANGENT":17,"NORMAL":18,"TEXCOORD_0":19},"indices":15,"material":3}],"name":"frame"},{"primitives":[{"attributes":{"POSITION":21,"TANGENT":22,"NORMAL":23,"TEXCOORD_0":24},"indices":20,"material":4}],"name":"strap"},{"primitives":[{"attributes":{"POSITION":26,"TANGENT":27,"NORMAL":28,"TEXCOORD_0":29},"indices":25,"material":5}],"name":"strap_adjust"},{"primitives":[{"attributes":{"POSITION":31,"TANGENT":32,"NORMAL":33,"TEXCOORD_0":34},"indices":30,"material":1}],"name":"left_inner_padding"},{"primitives":[{"attributes":{"POSITION":36,"TANGENT":37,"NORMAL":38,"TEXCOORD_0":39},"indices":35,"material":1}],"name":"right_inner_padding"},{"primitives":[{"attributes":{"POSITION":41,"NORMAL":42},"indices":40,"material":5},{"attributes":{"POSITION":44,"NORMAL":45},"indices":43,"material":1},{"attributes":{"POSITION":47,"NORMAL":48},"indices":46,"material":6}],"name":"right_lens"},{"primitives":[{"attributes":{"POSITION":50,"NORMAL":51},"indices":49,"material":5},{"attributes":{"POSITION":53,"NORMAL":54},"indices":52,"material":1},{"attributes":{"POSITION":56,"NORMAL":57},"indices":55,"material":6}],"name":"left_lens"}],"accessors":[{"bufferView":0,"componentType":5123,"count":4056,"type":"SCALAR","name":"accessorIndices"},{"bufferView":1,"componentType":5126,"count":912,"max":[0.681183755,0.504527032,-0.28854537],"min":[-0.7109512,0.00607344741,-0.598968148],"type":"VEC3","name":"accessorPositions"},{"bufferView":2,"componentType":5126,"count":912,"type":"VEC4","name":"accessorTangents"},{"bufferView":1,"byteOffset":10944,"componentType":5126,"count":912,"type":"VEC3","name":"accessorNormals"},{"bufferView":3,"componentType":5126,"count":912,"type":"VEC2","name":"accessorUVs"},{"bufferView":0,"byteOffset":8112,"componentType":5123,"count":1332,"type":"SCALAR","name":"accessorIndices"},{"bufferView":1,"byteOffset":21888,"componentType":5126,"count":1169,"max":[0.774750054,0.504527032,-0.28854537],"min":[-0.798158,0.00607344741,-0.8709426],"type":"VEC3","name":"accessorPositions"},{"bufferView":2,"byteOffset":14592,"componentType":5126,"count":1169,"type":"VEC4","name":"accessorTangents"},{"bufferView":1,"byteOffset":35916,"componentType":5126,"count":1169,"type":"VEC3","name":"accessorNormals"},{"bufferView":3,"byteOffset":7296,"componentType":5126,"count":1169,"type":"VEC2","name":"accessorUVs"},{"bufferView":0,"byteOffset":10776,"componentType":5123,"count":252,"type":"SCALAR","name":"accessorIndices"},{"bufferView":1,"byteOffset":49944,"componentType":5126,"count":241,"max":[0.7844575,0.369957983,-0.589642644],"min":[-0.806760669,0.1523785,-0.891082644],"type":"VEC3","name":"accessorPositions"},{"bufferView":2,"byteOffset":33296,"componentType":5126,"count":241,"type":"VEC4","name":"accessorTangents"},{"bufferView":1,"byteOffset":52836,"componentType":5126,"count":241,"type":"VEC3","name":"accessorNormals"},{"bufferView":3,"byteOffset":16648,"componentType":5126,"count":241,"type":"VEC2","name":"accessorUVs"},{"bufferView":0,"byteOffset":11280,"componentType":5123,"count":756,"type":"SCALAR","name":"accessorIndices"},{"bufferView":1,"byteOffset":55728,"componentType":5126,"count":280,"max":[0.08642496,0.2858611,-0.28116852],"min":[-0.108728081,0.246841028,-0.35470733],"type":"VEC3","name":"accessorPositions"},{"bufferView":2,"byteOffset":37152,"componentType":5126,"count":280,"type":"VEC4","name":"accessorTangents"},{"bufferView":1,"byteOffset":59088,"componentType":5126,"count":280,"type":"VEC3","name":"accessorNormals"},{"bufferView":3,"byteOffset":18576,"componentType":5126,"count":280,"type":"VEC2","name":"accessorUVs"},{"bufferView":0,"byteOffset":12792,"componentType":5123,"count":5940,"type":"SCALAR","name":"accessorIndices"},{"bufferView":1,"byteOffset":62448,"componentType":5126,"count":1194,"max":[0.8122628,0.4163049,-0.8477004],"min":[-0.8202207,0.158760816,-1.81751156],"type":"VEC3","name":"accessorPositions"},{"bufferView":2,"byteOffset":41632,"componentType":5126,"count":1194,"type":"VEC4","name":"accessorTangents"},{"bufferView":1,"byteOffset":76776,"componentType":5126,"count":1194,"type":"VEC3","name":"accessorNormals"},{"bufferView":3,"byteOffset":20816,"componentType":5126,"count":1194,"type":"VEC2","name":"accessorUVs"},{"bufferView":0,"byteOffset":24672,"componentType":5123,"count":240,"type":"SCALAR","name":"accessorIndices"},{"bufferView":1,"byteOffset":91104,"componentType":5126,"count":84,"max":[0.104108982,0.04070183,0.0155061539],"min":[-0.103035159,-0.040701814,-0.0155061539],"type":"VEC3","name":"accessorPositions"},{"bufferView":2,"byteOffset":60736,"componentType":5126,"count":84,"type":"VEC4","name":"accessorTangents"},{"bufferView":1,"byteOffset":92112,"componentType":5126,"count":84,"type":"VEC3","name":"accessorNormals"},{"bufferView":3,"byteOffset":30368,"componentType":5126,"count":84,"type":"VEC2","name":"accessorUVs"},{"bufferView":0,"byteOffset":25152,"componentType":5123,"count":21216,"type":"SCALAR","name":"accessorIndices"},{"bufferView":1,"byteOffset":93120,"componentType":5126,"count":4270,"max":[0.7997606,0.515979946,-0.27470085],"min":[0.103133969,-0.005379498,-0.9049272],"type":"VEC3","name":"accessorPositions"},{"bufferView":2,"byteOffset":62080,"componentType":5126,"count":4270,"type":"VEC4","name":"accessorTangents"},{"bufferView":1,"byteOffset":144360,"componentType":5126,"count":4270,"type":"VEC3","name":"accessorNormals"},{"bufferView":3,"byteOffset":31040,"componentType":5126,"count":4270,"type":"VEC2","name":"accessorUVs"},{"bufferView":0,"byteOffset":67584,"componentType":5123,"count":21216,"type":"SCALAR","name":"accessorIndices"},{"bufferView":1,"byteOffset":195600,"componentType":5126,"count":4270,"max":[0.7997606,0.515979946,-0.27470085],"min":[0.103133969,-0.005379498,-0.9049272],"type":"VEC3","name":"accessorPositions"},{"bufferView":2,"byteOffset":130400,"componentType":5126,"count":4270,"type":"VEC4","name":"accessorTangents"},{"bufferView":1,"byteOffset":246840,"componentType":5126,"count":4270,"type":"VEC3","name":"accessorNormals"},{"bufferView":3,"byteOffset":65200,"componentType":5126,"count":4270,"type":"VEC2","name":"accessorUVs"},{"bufferView":0,"byteOffset":110016,"componentType":5123,"count":534,"type":"SCALAR","name":"accessorIndices"},{"bufferView":1,"byteOffset":298080,"componentType":5126,"count":110,"max":[0.68213737,0.453753263,-0.279875278],"min":[0.177245751,0.08640106,-0.55890274],"type":"VEC3","name":"accessorPositions"},{"bufferView":1,"byteOffset":299400,"componentType":5126,"count":110,"type":"VEC3","name":"accessorNormals"},{"bufferView":0,"byteOffset":111084,"componentType":5123,"count":183,"type":"SCALAR","name":"accessorIndices"},{"bufferView":1,"byteOffset":300720,"componentType":5126,"count":43,"max":[0.78379333,0.344951063,-0.5602065],"min":[0.684977531,0.2066132,-0.891056657],"type":"VEC3","name":"accessorPositions"},{"bufferView":1,"byteOffset":301236,"componentType":5126,"count":43,"type":"VEC3","name":"accessorNormals"},{"bufferView":0,"byteOffset":111452,"componentType":5123,"count":39,"type":"SCALAR","name":"accessorIndices"},{"bufferView":1,"byteOffset":301752,"componentType":5126,"count":50,"max":[0.78379333,0.35997054,-0.511082768],"min":[0.651152849,0.202127472,-0.891056657],"type":"VEC3","name":"accessorPositions"},{"bufferView":1,"byteOffset":302352,"componentType":5126,"count":50,"type":"VEC3","name":"accessorNormals"},{"bufferView":0,"byteOffset":111532,"componentType":5123,"count":534,"type":"SCALAR","name":"accessorIndices"},{"bufferView":1,"byteOffset":302952,"componentType":5126,"count":110,"max":[0.68213737,0.453753263,-0.279875278],"min":[0.177245751,0.08640106,-0.55890274],"type":"VEC3","name":"accessorPositions"},{"bufferView":1,"byteOffset":304272,"componentType":5126,"count":110,"type":"VEC3","name":"accessorNormals"},{"bufferView":0,"byteOffset":112600,"componentType":5123,"count":183,"type":"SCALAR","name":"accessorIndices"},{"bufferView":1,"byteOffset":305592,"componentType":5126,"count":43,"max":[0.78379333,0.344951063,-0.5602065],"min":[0.684977531,0.2066132,-0.891056657],"type":"VEC3","name":"accessorPositions"},{"bufferView":1,"byteOffset":306108,"componentType":5126,"count":43,"type":"VEC3","name":"accessorNormals"},{"bufferView":0,"byteOffset":112968,"componentType":5123,"count":39,"type":"SCALAR","name":"accessorIndices"},{"bufferView":1,"byteOffset":306624,"componentType":5126,"count":50,"max":[0.78379333,0.35997054,-0.511082768],"min":[0.651152849,0.202127472,-0.891056657],"type":"VEC3","name":"accessorPositions"},{"bufferView":1,"byteOffset":307224,"componentType":5126,"count":50,"type":"VEC3","name":"accessorNormals"}],"bufferViews":[{"buffer":0,"byteLength":113048,"name":"bufferViewScalar"},{"buffer":0,"byteOffset":113048,"byteLength":307824,"byteStride":12,"name":"bufferViewFloatVec3"},{"buffer":0,"byteOffset":420872,"byteLength":198720,"byteStride":16,"name":"bufferViewFloatVec4"},{"buffer":0,"byteOffset":619592,"byteLength":99360,"byteStride":8,"name":"bufferViewFloatVec2"}],"buffers":[{"uri":"goggles.bin","byteLength":718952}],"materials":[{"pbrMetallicRoughness":{"metallicFactor":0.0,"roughnessFactor":0.18821308},"name":"metal_frame_SG"},{"pbrMetallicRoughness":{"metallicFactor":0.0,"roughnessFactor":0.201679826},"name":"blinn2"},{"pbrMetallicRoughness":{"baseColorFactor":[0.142857149,0.142857149,0.142857149,1.0],"metallicFactor":0.0,"roughnessFactor":0.450053632},"name":"lambert3"},{"pbrMetallicRoughness":{"baseColorFactor":[0.321428567,0.321428567,0.321428567,1.0],"metallicFactor":0.0,"roughnessFactor":0.450053632},"name":"lambert4"},{"pbrMetallicRoughness":{"baseColorFactor":[0.0416666679,0.0416666679,0.0416666679,1.0],"metallicFactor":0.0,"roughnessFactor":0.201679826},"name":"strapSG"},{"pbrMetallicRoughness":{"baseColorFactor":[0.820512831,0.820512831,0.820512831,0.961538434],"metallicFactor":0.0,"roughnessFactor":0.201679826},"alphaMode":"BLEND","name":"lenses_SG"},{"pbrMetallicRoughness":{"baseColorFactor":[0.678,0.678,0.75,0.9551282],"metallicFactor":0.0,"roughnessFactor":0.201679826},"alphaMode":"BLEND","name":"blinn5"}]}